<svg width="33" height="26" viewBox="0 0 33 26" fill="none" xmlns="http://www.w3.org/2000/svg">
<path opacity="0.5" fill-rule="evenodd" clip-rule="evenodd" d="M23.6847 16.412L32.2515 23.1906C32.5526 23.4291 32.7217 23.7524 32.7216 24.0894C32.7214 24.4265 32.5521 24.7497 32.2507 24.988C31.9494 25.2262 31.5408 25.36 31.1148 25.3599C30.6888 25.3598 30.2804 25.2258 29.9793 24.9874L21.4124 18.2087C18.8515 19.7782 15.6311 20.5168 12.4063 20.2742C9.18156 20.0317 6.19473 18.8261 4.05342 16.9029C1.91211 14.9796 0.777175 12.4831 0.879502 9.92129C0.981828 7.35943 2.31373 4.92463 4.60425 3.11222C6.89477 1.2998 9.97185 0.245915 13.2095 0.164947C16.4472 0.0839798 19.6022 0.982015 22.0328 2.67636C24.4634 4.37071 25.987 6.7341 26.2935 9.28573C26.6001 11.8374 25.6667 14.3856 23.6831 16.412H23.6847ZM13.6131 17.7992C16.147 17.7992 18.5771 17.0027 20.3689 15.585C22.1606 14.1672 23.1672 12.2444 23.1672 10.2394C23.1672 8.23438 22.1606 6.31151 20.3689 4.89376C18.5771 3.47602 16.147 2.67954 13.6131 2.67954C11.0792 2.67954 8.64908 3.47602 6.85735 4.89376C5.06561 6.31151 4.05902 8.23438 4.05902 10.2394C4.05902 12.2444 5.06561 14.1672 6.85735 15.585C8.64908 17.0027 11.0792 17.7992 13.6131 17.7992Z" fill="#0A032A" fill-opacity="0.7"/>
</svg>
